<svg width="21" height="20" viewBox="0 0 21 20" fill="#0A65FF" xmlns="http://www.w3.org/2000/svg">
<path d="M14.7 18.5C14.7 17.6716 13.9948 17 13.125 17H7.87499C7.00517 17 6.29999 17.6716 6.29999 18.5C6.29999 19.3284 7.00517 20 7.87499 20H13.125C13.9948 20 14.7 19.3284 14.7 18.5Z" fill="#CC65BB"/>
<path d="M17.85 11C17.85 9.8954 16.9098 9 15.75 9H5.24996C4.09013 9 3.14996 9.8954 3.14996 11C3.14996 12.1046 4.09013 13 5.24996 13H15.75C16.9098 13 17.85 12.1046 17.85 11Z" fill="#0A65FF"/>
<path d="M0 2.5C0 3.8807 1.17526 5 2.625 5H18.375C19.8247 5 21 3.8807 21 2.5C21 1.1193 19.8247 0 18.375 0H2.625C1.17526 0 0 1.1193 0 2.5Z" fill="#0A65FF"/>
</svg>
